<svg enable-background="new 0 0 24 24" height="512" viewBox="0 0 24 24" width="512" xmlns="http://www.w3.org/2000/svg"><path d="m13.5 23h-3c-.827 0-1.5-.673-1.5-1.5v-4.304l-3.73 2.156c-.357.2-.765.252-1.153.143-.382-.106-.698-.355-.893-.701l-1.496-2.594c-.416-.713-.175-1.635.54-2.052l3.722-2.148-3.72-2.147c-.717-.418-.958-1.34-.541-2.055l1.499-2.598c.19-.34.507-.589.889-.695.387-.109.796-.061 1.149.14l3.734 2.159v-4.304c0-.827.673-1.5 1.5-1.5h3c.827 0 1.5.673 1.5 1.5v4.304l3.73-2.156c.356-.202.763-.253 1.153-.143.382.106.698.355.893.701l1.496 2.594c.416.713.175 1.635-.54 2.052l-3.722 2.148 3.721 2.147c.717.418.958 1.34.541 2.055l-1.5 2.598c-.19.34-.507.589-.889.695-.389.109-.797.059-1.149-.14l-3.734-2.159v4.304c0 .827-.673 1.5-1.5 1.5zm-4-7.17c.086 0 .173.022.25.067.154.089.25.254.25.433v5.17c0 .275.225.5.5.5h3c.275 0 .5-.225.5-.5v-5.17c0-.179.096-.344.25-.433.154-.09.346-.09.5 0l4.48 2.59c.116.064.254.082.383.045.125-.035.228-.115.29-.227l1.504-2.605c.143-.245.063-.547-.179-.688l-4.469-2.579c-.154-.089-.25-.254-.25-.433s.096-.344.25-.433l4.471-2.58c.24-.141.319-.442.178-.686l-1.501-2.601c-.066-.117-.169-.197-.294-.232-.131-.038-.268-.02-.387.048l-4.476 2.587c-.154.09-.346.09-.5 0-.154-.089-.25-.254-.25-.433v-5.17c0-.275-.225-.5-.5-.5h-3c-.275 0-.5.225-.5.5v5.17c0 .179-.096.344-.25.433-.154.09-.346.09-.5 0l-4.48-2.59c-.116-.064-.253-.081-.383-.045-.125.035-.228.115-.29.227l-1.504 2.605c-.143.245-.064.547.178.688l4.469 2.579c.155.089.25.254.25.433s-.096.344-.25.433l-4.471 2.58c-.24.141-.319.442-.178.686l1.502 2.601c.066.117.169.197.294.232.129.036.268.019.387-.048l4.477-2.587c.076-.044.163-.067.249-.067z"/></svg>