<svg id="Capa_1" enable-background="new 0 0 512 512" height="512" viewBox="0 0 512 512" width="512" xmlns="http://www.w3.org/2000/svg"><g><g><g fill="#b0d16f"><path d="m85.333 483.2h68.267v-31.467c0-4.418-3.582-8-8-8h-52.267c-4.418 0-8 3.582-8 8z"/><path d="m290.134 483.2h68.266v-168c0-4.418-3.582-8-8-8h-52.267c-4.418 0-8 3.582-8 8v168z"/><path d="m392.534 483.2h68.266v-236.267c0-4.418-3.582-8-8-8h-52.267c-4.418 0-8 3.582-8 8v236.267z"/><path d="m187.733 483.2h68.267v-99.733c0-4.418-3.582-8-8-8h-52.267c-4.418 0-8 3.582-8 8z"/></g><path d="m145.066 443.733h-24.557c4.713 0 8.533 3.82 8.533 8.533v30.934h24.557v-30.933c0-4.713-3.82-8.534-8.533-8.534z" fill="#89c247"/><path d="m247.467 375.467h-24.578c4.713 0 8.533 3.82 8.533 8.533v99.2h24.578v-99.2c0-4.713-3.82-8.533-8.533-8.533z" fill="#89c247"/><path d="m349.867 307.2h-24.533c4.713 0 8.533 3.82 8.533 8.533v167.467h24.533v-167.467c0-4.713-3.82-8.533-8.533-8.533z" fill="#89c247"/><path d="m452.267 238.933h-24.533c4.713 0 8.533 3.82 8.533 8.533v235.734h24.533v-235.733c0-4.713-3.82-8.534-8.533-8.534z" fill="#89c247"/></g><path d="m51.199 128v341.333c0 4.713 3.82 8.533 8.533 8.533h426.667c4.713 0 8.533 3.82 8.533 8.533v17.067c0 4.713-3.82 8.533-8.533 8.533h-452.266c-9.426 0-17.067-7.641-17.067-17.067v-366.932c0-4.713 3.82-8.533 8.533-8.533h17.067c4.713 0 8.533 3.82 8.533 8.533z" fill="#f4fbff"/><path d="m460.8 179.2v-101.997c0-2.356 1.91-4.267 4.267-4.267h25.178c4.169 0 6.257-5.041 3.309-7.989l-63.578-63.576c-1.828-1.828-4.791-1.828-6.618 0l-63.578 63.577c-2.948 2.948-.86 7.989 3.309 7.989h25.178c2.357 0 4.267 1.91 4.267 4.267v101.996c0 4.713 3.82 8.533 8.533 8.533h51.2c4.713 0 8.533-3.82 8.533-8.533z" fill="#b0d16f"/><g><g><g><path d="m26.666 128v341.333c0 4.713 3.821 8.533 8.533 8.533h24.533c-4.713 0-8.533-3.821-8.533-8.533v-341.333c0-4.713-3.821-8.533-8.533-8.533h-17.067c-1.341 0-2.604.318-3.733.869 2.839 1.385 4.8 4.292 4.8 7.664z" fill="#bfebff"/></g><g><path d="m486.399 477.867h-24.533c4.713 0 8.533 3.82 8.533 8.533v17.067c0 4.713-3.82 8.533-8.533 8.533h24.533c4.713 0 8.533-3.82 8.533-8.533v-17.067c.001-4.713-3.82-8.533-8.533-8.533z" fill="#bfebff"/></g></g></g><g><g><g><path d="m436.267 179.2v-101.997c0-2.356 1.91-4.267 4.267-4.267h24.533c-2.356 0-4.267 1.91-4.267 4.267v101.997c0 4.713-3.82 8.533-8.533 8.533h-24.533c4.713 0 8.533-3.82 8.533-8.533z" fill="#89c247"/></g><g><path d="m490.245 72.937h-24.533c4.169 0 6.257-5.041 3.309-7.989l-54.62-54.62 8.958-8.958c1.827-1.827 4.79-1.827 6.618 0l63.578 63.577c2.947 2.949.859 7.99-3.31 7.99z" fill="#89c247"/></g></g></g><g><ellipse cx="204.799" cy="119.467" fill="#ffcc4a" rx="119.467" ry="119.467" transform="matrix(.707 -.707 .707 .707 -24.491 179.806)"/><path d="m204.799 0c-3.998 0-7.95.2-11.847.584 60.417 5.948 107.62 56.901 107.62 118.883s-47.202 112.934-107.62 118.882c3.897.384 7.849.584 11.847.584 65.98 0 119.467-53.487 119.467-119.467 0-65.979-53.487-119.466-119.467-119.466z" fill="#ffb54c"/><g fill="#ffe278"><path d="m204.799 0c-2.597 0-5.171.092-7.726.255v33.878c0 4.267 3.459 7.726 7.726 7.726s7.726-3.459 7.726-7.726v-33.878c-2.554-.163-5.129-.255-7.726-.255z"/><path d="m115.041 40.635 23.955 23.955c1.509 1.509 3.486 2.263 5.463 2.263s3.955-.755 5.463-2.263c3.018-3.017 3.018-7.909 0-10.926l-23.955-23.955c-3.872 3.403-7.522 7.053-10.926 10.926z"/><path d="m119.466 111.74h-33.878c-.163 2.555-.255 5.13-.255 7.726 0 2.597.092 5.171.255 7.727h33.878c4.267 0 7.726-3.459 7.726-7.726s-3.459-7.727-7.726-7.727z"/><path d="m138.996 174.343-23.955 23.955c3.404 3.873 7.054 7.523 10.926 10.927l23.955-23.955c3.018-3.017 3.018-7.909 0-10.927-3.016-3.017-7.909-3.017-10.926 0z"/><path d="m204.8 197.073c-4.267 0-7.726 3.459-7.726 7.726v33.878c2.555.163 5.13.256 7.726.256s5.171-.092 7.726-.256v-33.877c0-4.267-3.459-7.727-7.726-7.727z"/><path d="m294.558 198.298-23.955-23.955c-3.017-3.017-7.909-3.017-10.926 0-3.018 3.017-3.018 7.91 0 10.927l23.955 23.955c3.872-3.404 7.522-7.054 10.926-10.927z"/><path d="m283.631 29.708-23.955 23.955c-3.018 3.017-3.018 7.909 0 10.926 1.508 1.509 3.486 2.263 5.463 2.263s3.955-.755 5.463-2.263l23.955-23.955c-3.404-3.872-7.054-7.522-10.926-10.926z"/><path d="m324.011 111.74h-33.878c-4.267 0-7.726 3.459-7.726 7.726s3.459 7.726 7.726 7.726h33.878c.163-2.555.255-5.13.255-7.727 0-2.595-.092-5.169-.255-7.725z"/></g><ellipse cx="204.799" cy="119.467" fill="#ffb54c" rx="85.333" ry="85.333" transform="matrix(.707 -.707 .707 .707 -24.491 179.806)"/><path d="m204.8 111.74c-7.033 0-12.754-5.721-12.754-12.754 0-7.032 5.721-12.753 12.754-12.753 7.032 0 12.753 5.721 12.753 12.753 0 4.267 3.459 7.726 7.726 7.726s7.726-3.459 7.726-7.726c0-12.874-8.673-23.753-20.48-27.122v-3.598c0-4.267-3.459-7.726-7.726-7.726s-7.726 3.459-7.726 7.726v3.598c-11.807 3.369-20.48 14.248-20.48 27.122 0 15.553 12.653 28.207 28.207 28.207 7.032 0 12.753 5.721 12.753 12.754 0 7.032-5.721 12.753-12.753 12.753-7.033 0-12.754-5.721-12.754-12.753 0-4.267-3.459-7.726-7.726-7.726s-7.726 3.459-7.726 7.726c0 12.874 8.673 23.753 20.48 27.122v3.598c0 4.267 3.459 7.726 7.726 7.726s7.726-3.459 7.726-7.726v-3.598c11.807-3.369 20.48-14.248 20.48-27.122 0-15.553-12.654-28.207-28.206-28.207z" fill="#ffe278"/><path d="m204.799 34.133c-4.022 0-7.973.299-11.847.837 41.518 5.77 73.486 41.39 73.486 84.496s-31.969 78.726-73.486 84.496c3.874.538 7.825.837 11.847.837 47.128 0 85.333-38.205 85.333-85.333.001-47.128-38.204-85.333-85.333-85.333z" fill="#ff9959"/></g></g></svg>