<svg id="Capa_1" enable-background="new 0 0 512 512" height="512" viewBox="0 0 512 512" width="512" xmlns="http://www.w3.org/2000/svg"><g><path d="m76.8 119.467h366.933v333.298h-366.933z" fill="#587aa1"/><g><path d="m51.2 163.971h51.2v252.326h-51.2z" fill="#f4fbff"/><path d="m78.706 163.971h23.694v252.326h-23.694z" fill="#bfebff"/><path d="m102.4 197.073h-51.2v15.453h51.2z" fill="#85d9ff"/><path d="m102.4 367.741h-51.2v15.452h51.2z" fill="#85d9ff"/><path d="m110.933 448.884h-68.266v-31.284c0-4.418 3.582-8 8-8h52.267c4.418 0 8 3.582 8 8v31.284z" fill="#abd5ed"/><path d="m42.667 131.382h68.267v31.284c0 4.418-3.582 8-8 8h-52.267c-4.418 0-8-3.582-8-8z" fill="#abd5ed"/><g fill="#97bedb"><path d="m87.239 131.382v31.043c0 4.552-3.69 8.241-8.241 8.241h23.694c4.552 0 8.242-3.69 8.242-8.241v-31.043z"/><path d="m102.692 409.6h-23.694c4.552 0 8.241 3.69 8.241 8.242v31.043h23.694v-31.043c0-4.552-3.69-8.242-8.241-8.242z"/></g></g><path d="m492.237 94.065-229.877-92.828c-4.083-1.649-8.637-1.649-12.72 0l-229.877 92.828c-4.377 1.768-3.124 8.335 1.59 8.335h4.247l230.4 8.602 230.4-8.602h4.247c4.714 0 5.967-6.568 1.59-8.335z" fill="#f4fbff"/><path d="m421.719 102.4-165.719-66.92-165.719 66.92v9.718h331.438z" fill="#abd5ed"/><path d="m256 35.48-11.983 4.839 153.736 62.081v9.718h23.966v-9.718z" fill="#97bedb"/><path d="m492.237 94.065-229.877-92.828c-4.083-1.649-8.637-1.649-12.72 0l-5.487 2.216 224.39 90.613c4.377 1.768 3.124 8.335-1.59 8.335h-4.247l-218.553 8.16 11.847.441 230.4-8.602h4.247c4.714 0 5.967-6.568 1.59-8.335z" fill="#bfebff"/><g><path d="m418.133 163.971h51.2v252.326h-51.2z" fill="#f4fbff"/><path d="m445.639 163.971h23.694v252.326h-23.694z" fill="#bfebff"/><path d="m469.333 197.073h-51.199-.001v15.453h.001 51.199z" fill="#85d9ff"/><path d="m469.333 367.741h-51.199-.001v15.452h.001 51.199z" fill="#85d9ff"/><path d="m477.867 448.884h-68.267v-31.284c0-4.418 3.582-8 8-8h52.267c4.418 0 8 3.582 8 8z" fill="#abd5ed"/><path d="m409.6 131.382h68.267v31.284c0 4.418-3.582 8-8 8h-52.267c-4.418 0-8-3.582-8-8z" fill="#abd5ed"/><g fill="#97bedb"><path d="m454.173 131.382v31.043c0 4.552-3.69 8.241-8.241 8.241h23.694c4.552 0 8.241-3.69 8.241-8.241v-31.043z"/><path d="m469.625 409.6h-23.694c4.551 0 8.241 3.69 8.241 8.242v31.043h23.694v-31.043c.001-4.552-3.689-8.242-8.241-8.242z"/></g></g><path d="m25.6 102.4h460.8v26.133c0 4.418-3.582 8-8 8h-444.8c-4.418 0-8-3.582-8-8z" fill="#f4fbff"/><path d="m486.4 486.246h-460.8v-34.512c0-4.418 3.582-8 8-8h444.8c4.418 0 8 3.582 8 8z" fill="#f4fbff"/><path d="m478.159 443.733h-23.849c4.552 0 8.241 3.69 8.241 8.242v34.271h23.849v-34.271c0-4.552-3.69-8.242-8.241-8.242z" fill="#bfebff"/><path d="m504 512h-496c-4.418 0-8-3.582-8-8v-18.133c0-4.418 3.582-8 8-8h496c4.418 0 8 3.582 8 8v18.133c0 4.418-3.582 8-8 8z" fill="#abd5ed"/><path d="m503.759 477.867h-23.694c4.551 0 8.241 3.69 8.241 8.242v17.65c0 4.552-3.69 8.241-8.241 8.241h23.694c4.552 0 8.241-3.69 8.241-8.241v-17.65c0-4.552-3.69-8.242-8.241-8.242z" fill="#97bedb"/><path d="m462.766 102.4v25.892c0 4.552-3.69 8.241-8.241 8.241h23.634c4.552 0 8.241-3.69 8.241-8.241v-25.892z" fill="#bfebff"/><g><circle cx="256" cy="290.133" fill="#ffcc4a" r="119.467"/><path d="m256 170.667c-3.998 0-7.95.2-11.847.584 60.418 5.948 107.62 56.901 107.62 118.883s-47.202 112.934-107.62 118.883c3.897.384 7.849.584 11.847.584 65.98 0 119.467-53.487 119.467-119.467s-53.487-119.467-119.467-119.467z" fill="#ffb54c"/><g fill="#ffe278"><path d="m256 170.667c-2.597 0-5.171.092-7.726.256v33.877c0 4.267 3.459 7.726 7.726 7.726s7.726-3.459 7.726-7.726v-33.878c-2.555-.163-5.13-.255-7.726-.255z"/><path d="m166.242 211.302 23.955 23.955c1.509 1.509 3.486 2.263 5.463 2.263s3.955-.755 5.463-2.263c3.018-3.017 3.018-7.909 0-10.926l-23.955-23.955c-3.872 3.403-7.522 7.053-10.926 10.926z"/><path d="m170.667 282.407h-33.878c-.163 2.555-.255 5.13-.255 7.726s.092 5.171.255 7.727h33.878c4.267 0 7.726-3.459 7.726-7.726 0-4.268-3.459-7.727-7.726-7.727z"/><path d="m190.197 345.01-23.955 23.955c3.404 3.873 7.054 7.523 10.927 10.926l23.955-23.955c3.018-3.017 3.018-7.909 0-10.927-3.018-3.016-7.91-3.016-10.927.001z"/><path d="m256 367.74c-4.267 0-7.726 3.459-7.726 7.726v33.878c2.555.163 5.13.255 7.726.255s5.171-.092 7.726-.255v-33.878c0-4.267-3.459-7.726-7.726-7.726z"/><path d="m345.758 368.965-23.955-23.955c-3.017-3.017-7.909-3.017-10.927 0s-3.018 7.909 0 10.927l23.955 23.955c3.873-3.404 7.523-7.054 10.927-10.927z"/><path d="m334.831 200.375-23.955 23.955c-3.018 3.017-3.018 7.909 0 10.926 1.509 1.509 3.486 2.263 5.463 2.263s3.955-.755 5.463-2.263l23.955-23.955c-3.403-3.872-7.053-7.522-10.926-10.926z"/><path d="m375.211 282.407h-33.878c-4.267 0-7.726 3.459-7.726 7.726s3.459 7.726 7.726 7.726h33.878c.163-2.555.255-5.13.255-7.727.001-2.595-.092-5.17-.255-7.725z"/></g><circle cx="256" cy="290.133" fill="#ffb54c" r="85.333"/><path d="m256 282.407c-7.033 0-12.754-5.721-12.754-12.754 0-7.032 5.721-12.753 12.754-12.753 7.032 0 12.754 5.721 12.754 12.753 0 4.267 3.459 7.726 7.726 7.726s7.726-3.459 7.726-7.726c0-12.874-8.673-23.753-20.48-27.122v-3.598c0-4.267-3.459-7.726-7.726-7.726s-7.726 3.459-7.726 7.726v3.598c-11.807 3.369-20.48 14.248-20.48 27.122 0 15.553 12.653 28.207 28.207 28.207 7.032 0 12.754 5.721 12.754 12.753s-5.721 12.754-12.754 12.754-12.754-5.721-12.754-12.754c0-4.267-3.459-7.726-7.726-7.726s-7.726 3.459-7.726 7.726c0 12.874 8.673 23.753 20.48 27.122v3.598c0 4.267 3.459 7.726 7.726 7.726s7.726-3.459 7.726-7.726v-3.598c11.807-3.369 20.48-14.248 20.48-27.122-.001-15.552-12.654-28.206-28.207-28.206z" fill="#ffe278"/><path d="m256 204.8c-4.022 0-7.973.299-11.847.837 41.518 5.77 73.486 41.39 73.486 84.496s-31.968 78.726-73.486 84.496c3.874.538 7.825.837 11.847.837 47.128 0 85.333-38.205 85.333-85.333s-38.205-85.333-85.333-85.333z" fill="#ff9959"/></g></g></svg>