<svg id="Capa_1" enable-background="new 0 0 512 512" height="512" viewBox="0 0 512 512" width="512" xmlns="http://www.w3.org/2000/svg"><g><path d="m204.8 477.867c0 18.851 15.282 34.133 34.133 34.133h34.133c18.851 0 34.133-15.282 34.133-34.133v-5.151h-102.399z" fill="#587aa1"/><path d="m283.506 472.716v5.151c0 18.851-15.282 34.133-34.133 34.133h23.694c18.851 0 34.133-15.282 34.133-34.133v-5.151z" fill="#455f80"/><path d="m341.333 364.169h-170.666v81.698c0 17.673 14.327 32 32 32h106.666c17.673 0 32-14.327 32-32z" fill="#abd5ed"/><path d="m317.639 364.169v80.732c0 18.206-14.759 32.966-32.966 32.966h23.694c18.206 0 32.966-14.759 32.966-32.966v-80.732z" fill="#97bedb"/><path d="m418.133 162.135c0-87.656-69.562-159.066-156.495-162.037-91.366-3.122-166.767 68.819-167.761 160.233-.577 53.059 24.342 100.318 63.258 130.302 8.468 6.524 13.532 16.522 13.532 27.212v40.556h170.666v-40.557c0-10.68 5.049-20.677 13.51-27.193 38.488-29.644 63.29-76.181 63.29-128.516z" fill="#85d9ff"/><g><g><g><path d="m51.2 169.861h-34.133c-4.268 0-7.726-3.459-7.726-7.726s3.459-7.726 7.726-7.726h34.133c4.268 0 7.726 3.459 7.726 7.726.001 4.266-3.458 7.726-7.726 7.726z" fill="#ffcc4a"/></g><g><path d="m49.086 289.329c-2.67 0-5.268-1.386-6.698-3.865-2.134-3.696-.867-8.421 2.828-10.554l29.561-17.066c3.693-2.133 8.422-.868 10.554 2.828 2.134 3.696.867 8.421-2.828 10.554l-29.56 17.066c-1.218.702-2.547 1.037-3.857 1.037z" fill="#ffcc4a"/></g><g><path d="m462.915 289.329c-1.311 0-2.639-.334-3.856-1.037l-29.56-17.066c-3.695-2.133-4.962-6.859-2.828-10.554 2.133-3.696 6.856-4.962 10.554-2.828l29.561 17.066c3.695 2.133 4.962 6.859 2.828 10.554-1.432 2.478-4.029 3.865-6.699 3.865z" fill="#ffcc4a"/></g><g><path d="m494.933 169.861h-34.133c-4.268 0-7.726-3.459-7.726-7.726s3.459-7.726 7.726-7.726h34.133c4.268 0 7.726 3.459 7.726 7.726 0 4.266-3.459 7.726-7.726 7.726z" fill="#ffcc4a"/></g><g><path d="m433.368 67.463c-2.67 0-5.267-1.386-6.698-3.865-2.134-3.695-.867-8.421 2.828-10.554l29.56-17.067c3.693-2.133 8.421-.868 10.554 2.828 2.134 3.695.867 8.421-2.828 10.554l-29.561 17.067c-1.215.703-2.544 1.037-3.855 1.037z" fill="#ffcc4a"/></g><g><path d="m78.632 67.463c-1.311 0-2.639-.334-3.856-1.037l-29.561-17.067c-3.695-2.133-4.962-6.859-2.828-10.554 2.132-3.696 6.857-4.962 10.554-2.828l29.56 17.067c3.695 2.133 4.962 6.859 2.828 10.554-1.43 2.479-4.027 3.865-6.697 3.865z" fill="#ffcc4a"/></g></g></g><path d="m261.638.098c-5.926-.203-11.784-.083-17.56.331 84.084 5.993 150.441 76.094 150.441 161.705 0 52.336-24.802 98.872-63.289 128.515-8.461 6.517-13.51 16.514-13.51 27.193v40.557h23.613v-40.557c0-10.68 5.049-20.677 13.51-27.193 38.487-29.643 63.289-76.179 63.289-128.515.001-87.656-69.561-159.065-156.494-162.036z" fill="#45c5ff"/><path d="m341.333 375.467c9.426 0 17.067-7.641 17.067-17.067s-7.641-17.067-17.067-17.067h-170.666c-9.426 0-17.067 7.641-17.067 17.067s7.641 17.067 17.067 17.067z" fill="#f4fbff"/><g><g><path d="m341.333 417.327h-170.666c-4.268 0-7.726-3.459-7.726-7.726s3.459-7.726 7.726-7.726h170.666c4.268 0 7.726 3.459 7.726 7.726 0 4.266-3.458 7.726-7.726 7.726z" fill="#587aa1"/></g></g><g><g><path d="m341.333 451.46h-170.666c-4.268 0-7.726-3.459-7.726-7.726s3.459-7.726 7.726-7.726h170.666c4.268 0 7.726 3.459 7.726 7.726s-3.458 7.726-7.726 7.726z" fill="#587aa1"/></g></g><path d="m341.333 341.334h-23.694c9.426 0 17.067 7.641 17.067 17.067s-7.641 17.067-17.067 17.067h23.694c9.426 0 17.067-7.641 17.067-17.067s-7.641-17.067-17.067-17.067z" fill="#bfebff"/><g><circle cx="256" cy="162.133" fill="#ffcc4a" r="119.467"/><path d="m256 42.666c-3.998 0-7.95.2-11.847.584 60.418 5.948 107.62 56.901 107.62 118.883 0 61.981-47.202 112.934-107.62 118.882 3.898.384 7.849.584 11.847.584 65.98 0 119.467-53.487 119.467-119.467 0-65.979-53.487-119.466-119.467-119.466z" fill="#ffb54c"/><g fill="#ffe278"><path d="m256 42.666c-2.596 0-5.171.092-7.726.255v33.878c0 4.267 3.459 7.726 7.726 7.726s7.726-3.459 7.726-7.726v-33.878c-2.555-.163-5.13-.255-7.726-.255z"/><path d="m166.242 83.301 23.955 23.955c1.509 1.508 3.486 2.263 5.463 2.263s3.955-.754 5.463-2.263c3.018-3.017 3.018-7.91 0-10.927l-23.955-23.955c-3.872 3.404-7.522 7.054-10.926 10.927z"/><path d="m170.667 154.406h-33.878c-.163 2.555-.255 5.13-.255 7.726s.092 5.171.255 7.726h33.878c4.267 0 7.726-3.459 7.726-7.726 0-4.266-3.459-7.726-7.726-7.726z"/><path d="m190.197 217.009-23.955 23.955c3.404 3.873 7.054 7.523 10.926 10.927l23.955-23.955c3.018-3.017 3.018-7.909 0-10.926-3.017-3.018-7.909-3.018-10.926-.001z"/><path d="m256 239.739c-4.267 0-7.726 3.459-7.726 7.726v33.878c2.555.163 5.13.255 7.726.255s5.171-.092 7.727-.255v-33.878c0-4.266-3.46-7.726-7.727-7.726z"/><path d="m345.758 240.964-23.955-23.955c-3.017-3.017-7.909-3.017-10.927 0s-3.018 7.909 0 10.926l23.955 23.955c3.873-3.403 7.523-7.053 10.927-10.926z"/><path d="m334.831 72.374-23.955 23.955c-3.018 3.017-3.018 7.91 0 10.927 1.509 1.508 3.486 2.263 5.463 2.263s3.955-.754 5.463-2.263l23.955-23.955c-3.403-3.873-7.053-7.523-10.926-10.927z"/><path d="m375.211 154.406h-33.878c-4.267 0-7.726 3.459-7.726 7.726s3.459 7.726 7.726 7.726h33.878c.163-2.555.255-5.13.255-7.726.001-2.596-.092-5.17-.255-7.726z"/></g><circle cx="256" cy="162.133" fill="#ffb54c" r="85.333"/><path d="m256 154.406c-7.033 0-12.754-5.721-12.754-12.754 0-7.032 5.721-12.754 12.754-12.754 7.032 0 12.753 5.721 12.753 12.754 0 4.267 3.459 7.726 7.726 7.726s7.726-3.459 7.726-7.726c0-12.874-8.673-23.753-20.48-27.122v-3.598c0-4.267-3.459-7.726-7.726-7.726s-7.726 3.459-7.726 7.726v3.598c-11.807 3.369-20.48 14.248-20.48 27.122 0 15.553 12.653 28.207 28.207 28.207 7.032 0 12.753 5.721 12.753 12.754 0 7.032-5.721 12.754-12.753 12.754-7.033 0-12.754-5.721-12.754-12.754 0-4.267-3.459-7.726-7.726-7.726s-7.726 3.459-7.726 7.726c0 12.874 8.673 23.753 20.48 27.122v3.598c0 4.267 3.459 7.726 7.726 7.726s7.726-3.459 7.726-7.726v-3.598c11.807-3.369 20.48-14.248 20.48-27.122 0-15.553-12.653-28.207-28.206-28.207z" fill="#ffe278"/><path d="m256 76.799c-4.022 0-7.973.299-11.847.837 41.518 5.77 73.486 41.39 73.486 84.496s-31.968 78.726-73.486 84.496c3.874.538 7.825.837 11.847.837 47.128 0 85.333-38.205 85.333-85.333s-38.205-85.333-85.333-85.333z" fill="#ff9959"/></g></g></svg>