<svg id="Capa_1" enable-background="new 0 0 512 512" height="512" viewBox="0 0 512 512" width="512" xmlns="http://www.w3.org/2000/svg"><g><g><g><path d="m25.6 43.439v-26.372c0-9.426 7.641-17.067 17.067-17.067h426.667c9.426 0 17.067 7.641 17.067 17.067v26.373h-460.801z" fill="#67b83e"/><path d="m469.333 0h-23.694c9.426 0 17.067 7.641 17.067 17.067v26.373h23.694v-26.373c0-9.426-7.641-17.067-17.067-17.067z" fill="#4ea832"/></g><g><path d="m496 307.2h-480c-8.837 0-16-7.163-16-16v-241.067c0-8.837 7.163-16 16-16h480c8.837 0 16 7.163 16 16v241.067c0 8.837-7.163 16-16 16z" fill="#89c247"/><path d="m85.876 75.455c-3.321 22.671-22.018 41.246-44.546 44.554-4.152.61-7.196 4.228-7.196 8.424v84.467c0 4.196 3.045 7.814 7.196 8.424 22.528 3.308 41.225 21.882 44.546 44.554.608 4.149 4.23 7.189 8.423 7.189h323.402c4.193 0 7.816-3.039 8.423-7.189 3.321-22.671 22.018-41.246 44.546-44.554 4.152-.61 7.196-4.228 7.196-8.424v-84.467c0-4.196-3.045-7.814-7.196-8.424-22.528-3.308-41.225-21.882-44.546-44.554-.608-4.149-4.23-7.188-8.423-7.188h-323.402c-4.193 0-7.815 3.039-8.423 7.188z" fill="#b0d16f"/><g><path d="m42.667 84.526h-8.533c-4.268 0-7.726-3.459-7.726-7.726 0-4.268 3.459-7.726 7.726-7.726h8.533c4.268 0 7.726 3.459 7.726 7.726s-3.458 7.726-7.726 7.726z" fill="#67b83e"/></g><g><g><path d="m477.866 84.526h-8.533c-4.268 0-7.726-3.459-7.726-7.726 0-4.268 3.459-7.726 7.726-7.726h8.533c4.268 0 7.726 3.459 7.726 7.726s-3.458 7.726-7.726 7.726z" fill="#67b83e"/></g></g><g><g><path d="m477.866 272.26h-8.533c-4.268 0-7.726-3.459-7.726-7.726s3.459-7.726 7.726-7.726h8.533c4.268 0 7.726 3.459 7.726 7.726s-3.458 7.726-7.726 7.726z" fill="#67b83e"/></g></g><g><g><path d="m42.667 272.26h-8.533c-4.268 0-7.726-3.459-7.726-7.726s3.459-7.726 7.726-7.726h8.533c4.268 0 7.726 3.459 7.726 7.726s-3.458 7.726-7.726 7.726z" fill="#67b83e"/></g></g><path d="m495.517 34.133h-23.694c9.103 0 16.483 7.38 16.483 16.483v240.101c0 9.103-7.38 16.483-16.483 16.483h23.694c9.103 0 16.483-7.38 16.483-16.483v-240.101c0-9.103-7.38-16.483-16.483-16.483z" fill="#67b83e"/><g><g><circle cx="256" cy="170.667" fill="#89c247" r="68.267"/></g></g><ellipse cx="119.467" cy="170.667" fill="#89c247" rx="17.067" ry="17.067" transform="matrix(.23 -.973 .973 .23 -74.082 247.726)"/><ellipse cx="392.533" cy="170.667" fill="#89c247" rx="17.067" ry="17.067" transform="matrix(.707 -.707 .707 .707 -5.709 327.55)"/><g fill="#67b83e"><path d="m256 102.4c-4.043 0-7.997.372-11.847 1.046 32.052 5.612 56.419 33.561 56.419 67.221s-24.367 61.609-56.419 67.221c3.85.674 7.804 1.046 11.847 1.046 37.703 0 68.267-30.564 68.267-68.267s-30.564-68.267-68.267-68.267z"/><path d="m392.533 153.6c-4.605 0-8.777 1.833-11.847 4.798 3.214 3.104 5.22 7.449 5.22 12.269s-2.006 9.165-5.22 12.269c3.07 2.965 7.242 4.798 11.847 4.798 9.426 0 17.067-7.641 17.067-17.067s-7.641-17.067-17.067-17.067z"/><path d="m119.467 153.6c-4.605 0-8.777 1.833-11.847 4.798 3.213 3.104 5.22 7.449 5.22 12.269s-2.006 9.165-5.22 12.269c3.07 2.965 7.242 4.798 11.847 4.798 9.426 0 17.067-7.641 17.067-17.067-.001-9.426-7.642-17.067-17.067-17.067z"/></g></g></g><g><g><circle cx="256" cy="426.667" fill="#b0d16f" r="85.333"/><path d="m273.067 469.333v-40.798c0-2.356 1.91-4.267 4.267-4.267h12.224c3.617 0 5.594-4.219 3.278-6.998l-33.557-40.269c-1.706-2.047-4.85-2.047-6.555 0l-33.557 40.269c-2.316 2.779-.34 6.998 3.278 6.998h12.224c2.356 0 4.267 1.91 4.267 4.267v40.798c0 4.713 3.82 8.533 8.533 8.533h17.067c4.71.001 8.531-3.82 8.531-8.533z" fill="#f4fbff"/><path d="m256 341.333c-4.022 0-7.973.299-11.847.837 41.518 5.77 73.486 41.39 73.486 84.496s-31.968 78.726-73.486 84.496c3.874.539 7.825.838 11.847.838 47.128 0 85.333-38.205 85.333-85.333s-38.205-85.334-85.333-85.334z" fill="#89c247"/><path d="m292.835 417.271-33.557-40.269c-1.706-2.047-4.85-2.047-6.555 0l-8.569 10.283 24.988 29.985c2.316 2.779.34 6.998-3.278 6.998h-12.224c-2.356 0-4.267 1.91-4.267 4.267v40.798c0 3.537-2.153 6.572-5.22 7.866 1.019.43 2.139.668 3.314.668h17.067c4.713 0 8.533-3.82 8.533-8.533v-40.798c0-2.356 1.91-4.267 4.267-4.267h12.224c3.617 0 5.593-4.22 3.277-6.998z" fill="#bfebff"/></g></g></g></svg>