<svg id="Capa_1" enable-background="new 0 0 512 512" height="512" viewBox="0 0 512 512" width="512" xmlns="http://www.w3.org/2000/svg"><g><g><g><path d="m25.6 43.439v-26.372c0-9.426 7.641-17.067 17.067-17.067h426.667c9.426 0 17.067 7.641 17.067 17.067v26.373h-460.801z" fill="#67b83e"/><path d="m469.333 0h-23.694c9.426 0 17.067 7.641 17.067 17.067v26.373h23.694v-26.373c0-9.426-7.641-17.067-17.067-17.067z" fill="#4ea832"/></g><g><path d="m496 307.2h-480c-8.837 0-16-7.163-16-16v-241.067c0-8.837 7.164-16 16-16h480c8.837 0 16 7.163 16 16v241.067c0 8.837-7.163 16-16 16z" fill="#89c247"/><path d="m85.876 75.455c-3.321 22.671-22.018 41.246-44.546 44.554-4.152.61-7.196 4.228-7.196 8.424v84.467c0 4.196 3.045 7.814 7.196 8.424 22.529 3.308 41.226 21.882 44.546 44.554.608 4.149 4.23 7.189 8.423 7.189h323.402c4.193 0 7.816-3.039 8.423-7.189 3.321-22.671 22.018-41.246 44.546-44.554 4.152-.61 7.196-4.228 7.196-8.424v-84.467c0-4.196-3.045-7.814-7.196-8.424-22.529-3.308-41.225-21.882-44.546-44.554-.608-4.149-4.23-7.188-8.423-7.188h-323.402c-4.193 0-7.815 3.039-8.423 7.188z" fill="#b0d16f"/><g><path d="m42.667 84.526h-8.533c-4.268 0-7.726-3.459-7.726-7.726 0-4.268 3.459-7.726 7.726-7.726h8.533c4.268 0 7.726 3.459 7.726 7.726s-3.458 7.726-7.726 7.726z" fill="#67b83e"/></g><g><g><path d="m477.866 84.526h-8.533c-4.268 0-7.726-3.459-7.726-7.726 0-4.268 3.459-7.726 7.726-7.726h8.533c4.268 0 7.726 3.459 7.726 7.726s-3.458 7.726-7.726 7.726z" fill="#67b83e"/></g></g><g><g><path d="m477.866 272.26h-8.533c-4.268 0-7.726-3.459-7.726-7.726s3.459-7.726 7.726-7.726h8.533c4.268 0 7.726 3.459 7.726 7.726s-3.458 7.726-7.726 7.726z" fill="#67b83e"/></g></g><g><g><path d="m42.667 272.26h-8.533c-4.268 0-7.726-3.459-7.726-7.726s3.459-7.726 7.726-7.726h8.533c4.268 0 7.726 3.459 7.726 7.726s-3.458 7.726-7.726 7.726z" fill="#67b83e"/></g></g><path d="m495.517 34.133h-23.694c9.103 0 16.483 7.38 16.483 16.483v240.101c0 9.103-7.38 16.483-16.483 16.483h23.694c9.103 0 16.483-7.38 16.483-16.483v-240.101c0-9.103-7.38-16.483-16.483-16.483z" fill="#67b83e"/><g><g><circle cx="256" cy="170.667" fill="#89c247" r="68.267"/></g></g><ellipse cx="119.467" cy="170.667" fill="#89c247" rx="17.067" ry="17.067" transform="matrix(.23 -.973 .973 .23 -74.082 247.726)"/><ellipse cx="392.533" cy="170.667" fill="#89c247" rx="17.067" ry="17.067" transform="matrix(.707 -.707 .707 .707 -5.709 327.55)"/><g fill="#67b83e"><path d="m256 102.4c-4.043 0-7.997.372-11.847 1.046 32.052 5.612 56.42 33.561 56.42 67.221s-24.367 61.609-56.42 67.221c3.85.674 7.804 1.046 11.847 1.046 37.703 0 68.267-30.564 68.267-68.267s-30.564-68.267-68.267-68.267z"/><path d="m392.533 153.6c-4.605 0-8.777 1.833-11.847 4.798 3.214 3.104 5.22 7.449 5.22 12.269s-2.006 9.165-5.22 12.269c3.07 2.965 7.242 4.798 11.847 4.798 9.426 0 17.067-7.641 17.067-17.067s-7.641-17.067-17.067-17.067z"/><path d="m119.467 153.6c-4.605 0-8.777 1.833-11.847 4.798 3.213 3.104 5.219 7.449 5.219 12.269s-2.006 9.165-5.219 12.269c3.07 2.965 7.242 4.798 11.847 4.798 9.426 0 17.067-7.641 17.067-17.067-.001-9.426-7.642-17.067-17.067-17.067z"/></g></g></g><path d="m375.467 375.961c0 64.322-48.674 118.583-115.203 135.506-2.797.712-5.731.712-8.528 0-66.528-16.923-115.203-71.184-115.203-135.506v-90.704c0-7.62 5.051-14.317 12.378-16.41l102.4-29.257c3.064-.876 6.313-.876 9.377 0l102.4 29.257c7.327 2.093 12.378 8.79 12.378 16.41v90.704z" fill="#f4fbff"/><path d="m335.144 296.362c3.663 1.047 6.189 4.395 6.189 8.205v71.393c0 23.424-8.77 45.682-25.361 64.369-14.72 16.579-34.872 29.208-57.515 36.196-1.598.493-3.317.493-4.915 0-22.643-6.988-42.795-19.617-57.515-36.196-16.591-18.686-25.361-40.945-25.361-64.369v-71.393c0-3.81 2.526-7.158 6.189-8.205l76.8-21.943c1.532-.438 3.156-.438 4.689 0z" fill="#45c5ff"/><g><g><path d="m244.54 412.773-36.7-31.109c-3.694-3.128-4.051-8.699-.784-12.271l11.764-12.867c2.99-3.27 7.985-3.708 11.498-1.008l14.517 11.491c1.616 1.242 3.885 1.168 5.416-.178l31.369-27.558c3.519-3.092 8.873-2.769 11.995.723l11.392 12.745c3.152 3.527 2.835 8.945-.708 12.079l-54.175 47.893c-1.588 1.404-3.966 1.43-5.584.06z" fill="#f4fbff"/></g></g><path d="m363.089 268.847-21.681-6.194c6.219 2.655 10.365 8.783 10.365 15.681v105.354c0 56.721-37.855 105.612-92.421 127.981.305-.06.61-.125.913-.202 66.528-16.923 115.202-71.183 115.202-135.505v-90.704c0-7.621-5.052-14.318-12.378-16.411z" fill="#bfebff"/><path d="m335.144 296.362-23.14-6.612c3.234 1.273 5.405 4.404 5.405 7.935v88.134c0 23.424-8.77 45.682-25.361 64.369-9.376 10.56-20.962 19.508-33.985 26.426.131-.034.265-.05.395-.09 22.643-6.988 42.795-19.617 57.515-36.196 16.591-18.687 25.361-40.945 25.361-64.369v-71.393c-.001-3.809-2.526-7.157-6.19-8.204z" fill="#0ca8ed"/><g><g><path d="m305.008 352.741-11.392-12.744c-3.122-3.493-8.475-3.815-11.995-.723l-6.915 6.075 6.608 7.392c3.153 3.527 2.835 8.945-.708 12.079l-45.345 40.087 9.28 7.867c1.618 1.37 3.996 1.344 5.584-.061l54.175-47.893c3.542-3.135 3.86-8.553.708-12.079z" fill="#bfebff"/></g></g></g></svg>