<svg id="Capa_1" enable-background="new 0 0 512 512" height="512" viewBox="0 0 512 512" width="512" xmlns="http://www.w3.org/2000/svg"><g><path d="m75.718 273.067-24.505-35.352v-14.888c-.529-19.289 14.95-35.093 34.12-35.093h307.2c9.426 0 17.067 7.641 17.067 17.067v68.267h-333.882z" fill="#ff776b"/><path d="m392.534 187.733h-23.694c9.426 0 17.067 7.641 17.067 17.067v68.267h23.693v-68.267c0-9.426-7.641-17.067-17.066-17.067z" fill="#ff5757"/><g><path d="m366.933 332.8v-316.317c0-9.103-7.379-16.483-16.483-16.483h-240.1c-9.103 0-16.483 7.38-16.483 16.483v316.317z" fill="#89c247"/><path d="m350.45 0h-23.694c9.103 0 16.483 7.38 16.483 16.483v316.317h23.694v-316.317c0-9.103-7.379-16.483-16.483-16.483z" fill="#67b83e"/><path d="m332.8 332.8v-238.501c0-4.193-3.039-7.815-7.189-8.423-22.671-3.321-41.246-22.018-44.554-44.546-.61-4.152-4.228-7.196-8.424-7.196h-84.467c-4.197 0-7.815 3.044-8.424 7.196-3.308 22.528-21.882 41.225-44.554 44.546-4.149.608-7.189 4.23-7.189 8.423v238.501z" fill="#b0d16f"/><g><g><path d="m144.26 34.134v8.533c0 4.268-3.459 7.726-7.726 7.726-4.268 0-7.726-3.459-7.726-7.726v-8.533c0-4.268 3.459-7.726 7.726-7.726 4.267-.001 7.726 3.458 7.726 7.726z" fill="#67b83e"/></g></g><g><g><path d="m331.993 34.134v8.533c0 4.268-3.459 7.726-7.726 7.726-4.268 0-7.726-3.459-7.726-7.726v-8.533c0-4.268 3.459-7.726 7.726-7.726 4.267-.001 7.726 3.458 7.726 7.726z" fill="#67b83e"/></g></g><g><g><circle cx="230.4" cy="256" fill="#89c247" r="68.267"/></g></g><ellipse cx="230.4" cy="119.467" fill="#89c247" rx="17.067" ry="17.067" transform="matrix(.707 -.707 .707 .707 -16.993 197.908)"/><g fill="#67b83e"><path d="m230.4 187.733c-4.043 0-7.997.372-11.847 1.046 32.052 5.612 56.419 33.561 56.419 67.221s-24.367 61.609-56.419 67.221c3.85.674 7.804 1.046 11.847 1.046 37.703 0 68.267-30.564 68.267-68.267s-30.564-68.267-68.267-68.267z"/><path d="m230.4 102.4c-4.605 0-8.777 1.833-11.847 4.798 3.213 3.104 5.219 7.449 5.219 12.269s-2.006 9.165-5.219 12.269c3.07 2.965 7.242 4.798 11.847 4.798 9.426 0 17.067-7.641 17.067-17.067s-7.641-17.067-17.067-17.067z"/></g></g><g><path d="m400.912 298.667h13.392v34.133h-13.392z" fill="#ff776b"/><path d="m409.6 494.933c0 9.426-7.641 17.067-17.067 17.067h-307.2c-18.851 0-34.133-15.282-34.133-34.134v-255.999l.014.959c.509 18.592 16.231 33.174 34.83 33.174h306.49c9.426 0 17.067 7.641 17.067 17.067v221.866z" fill="#ff9959"/><g><path d="m392.534 256h-23.694c9.426 0 17.067 7.641 17.067 17.067v221.867c0 9.426-7.641 17.067-17.067 17.067h23.694c9.426 0 17.067-7.641 17.067-17.067v-221.867c-.001-9.426-7.642-17.067-17.067-17.067z" fill="#ff776b"/></g><path d="m145.6 477.867h-52.267c-4.418 0-8-3.582-8-8v-18.133c0-4.418 3.582-8 8-8h52.267c4.418 0 8 3.582 8 8v18.133c0 4.418-3.582 8-8 8z" fill="#ffcc4a"/><path d="m409.6 298.667h17.066c18.851 0 34.133 15.282 34.133 34.133v68.267c0 18.851-15.282 34.133-34.133 34.133h-102.4c-18.851 0-34.133-15.282-34.133-34.133v-34.133c0-18.851 15.282-34.133 34.133-34.133h85.334z" fill="#ff9959"/><path d="m145.358 443.733h-23.694c4.552 0 8.241 3.69 8.241 8.242v17.65c0 4.551-3.69 8.241-8.241 8.241h23.694c4.552 0 8.242-3.69 8.242-8.241v-17.65c0-4.552-3.69-8.242-8.242-8.242z" fill="#ffb54c"/><path d="m290.134 366.933v34.133c0 18.851 15.282 34.133 34.133 34.133h68.266v-102.399h-68.266c-18.851 0-34.133 15.282-34.133 34.133z" fill="#ffcc4a"/><circle cx="341.334" cy="384" fill="#f4fbff" r="17.067"/><path d="m341.334 366.933c-4.605 0-8.777 1.833-11.847 4.798 3.213 3.104 5.22 7.449 5.22 12.269s-2.006 9.165-5.22 12.269c3.07 2.965 7.242 4.798 11.847 4.798 9.426 0 17.067-7.641 17.067-17.067-.001-9.426-7.642-17.067-17.067-17.067z" fill="#bfebff"/><path d="m368.84 332.8h23.694v102.4h-23.694z" fill="#ffb54c"/><path d="m426.667 298.667h-17.067v.648c15.678 3.086 27.505 16.902 27.505 33.485v68.267c0 18.851-15.282 34.133-34.133 34.133h23.694c18.851 0 34.133-15.282 34.133-34.133v-68.267c.001-18.851-15.281-34.133-34.132-34.133z" fill="#ff776b"/></g></g></svg>