<svg id="Capa_1" enable-background="new 0 0 512 512" height="512" viewBox="0 0 512 512" width="512" xmlns="http://www.w3.org/2000/svg"><g><path d="m115.199 132.264c0-21.207-17.192-38.399-38.4-38.399h-18.25v134.32h56.651v-95.921z" fill="#ffb2a3"/><path d="m38.401 42.664c21.208 0 38.4 17.192 38.4 38.399v125.931c4.005-1.416 8.312-2.194 12.802-2.194 9.496 0 18.187 3.447 24.889 9.158l76.334 63.611c8.534 7.043 13.974 17.702 13.974 29.631v136.535l-102.398-.003v-34.133c0-12.768-6.232-24.081-15.819-31.062l-70.808-53.11c-9.562-6.985-15.773-18.281-15.773-31.029v-213.335c0-21.207 17.192-38.399 38.399-38.399z" fill="#ffd3bd"/><path d="m76.801 191.149v15.845c-13.197 4.361-22.75 16.958-22.75 31.597 0 9.918 4.393 19.232 12.055 25.555l77.221 63.779c3.29 2.717 3.755 7.586 1.037 10.877-2.719 3.29-7.589 3.752-10.878 1.037l-77.219-63.777c-11.228-9.268-17.669-22.925-17.669-37.472-.001-23.222 16.387-42.679 38.203-47.441z" fill="#ffb2a3"/><g fill="#ffb2a3"><path d="m53.106 81.063v125.931c4.005-1.416 8.312-2.194 12.802-2.194 3.785 0 7.438.556 10.892 1.576v-125.313c0-21.207-17.192-38.399-38.4-38.399-4.136 0-8.115.661-11.847 1.871 15.409 4.994 26.553 19.456 26.553 36.528z"/><path d="m190.826 277.568-76.335-63.611c-6.703-5.71-15.394-9.158-24.889-9.158-4.128 0-8.097.665-11.823 1.871 4.83 1.569 9.24 4.068 13.018 7.286l76.334 63.611c8.534 7.043 13.974 17.702 13.974 29.631v136.535l23.694.001v-136.535c.001-11.929-5.439-22.588-13.973-29.631z"/></g><path d="m85.334 465.641v-30.441c0-4.713 3.821-8.533 8.533-8.533h119.465c4.713 0 8.533 3.821 8.533 8.533l-.001 30.441z" fill="#f4fbff"/><path d="m213.333 426.667h-23.694c4.713 0 8.533 3.821 8.533 8.533l-.001 30.441h23.694l.001-30.441c0-4.712-3.82-8.533-8.533-8.533z" fill="#bfebff"/><path d="m238.934 503.467v-25.601c0-9.426-7.641-17.067-17.066-17.067h-136.534c-9.426 0-17.067 7.641-17.067 17.067v25.601c0 4.713 3.821 8.533 8.533 8.533h153.6c4.713 0 8.534-3.82 8.534-8.533z" fill="#587aa1"/><path d="m221.867 460.799h-23.694c9.426 0 17.067 7.641 17.067 17.067v25.601c0 4.713-3.82 8.533-8.533 8.533h23.693c4.713 0 8.533-3.821 8.533-8.533v-25.601c.001-9.426-7.64-17.067-17.066-17.067z" fill="#455f80"/><g><path d="m396.801 132.264c0-21.207 17.192-38.399 38.4-38.399h18.251v134.32h-56.651z" fill="#ffb2a3"/><path d="m473.599 42.664c-21.207 0-38.4 17.192-38.4 38.399v125.931c-4.005-1.416-8.312-2.194-12.802-2.194-9.496 0-18.186 3.447-24.889 9.158l-76.334 63.611c-8.534 7.043-13.974 17.702-13.974 29.631v136.535l102.398-.003v-34.133c0-12.768 6.232-24.081 15.819-31.062l70.808-53.11c9.562-6.985 15.773-18.281 15.773-31.029v-213.335c0-21.207-17.192-38.399-38.399-38.399z" fill="#ffd3bd"/><path d="m473.599 42.664c-4.135 0-8.115.661-11.847 1.871 15.408 4.994 26.552 19.456 26.552 36.528v213.335c0 12.747-6.211 24.044-15.773 31.029l-70.808 53.11c-9.588 6.982-15.819 18.294-15.819 31.062v34.133l-78.704.002v.001l102.398-.003v-34.133c0-12.768 6.232-24.081 15.819-31.062l70.808-53.11c9.562-6.985 15.773-18.281 15.773-31.029v-213.335c0-21.207-17.192-38.399-38.399-38.399z" fill="#ffb2a3"/><path d="m435.199 191.149v15.845c13.197 4.361 22.75 16.958 22.75 31.597 0 9.918-4.393 19.232-12.055 25.555l-77.221 63.779c-3.29 2.717-3.755 7.586-1.037 10.877 2.719 3.29 7.589 3.752 10.878 1.037l77.219-63.777c11.228-9.268 17.669-22.925 17.669-37.472 0-23.222-16.387-42.679-38.203-47.441z" fill="#ffb2a3"/><path d="m290.134 465.641v-30.441c0-4.713 3.82-8.533 8.533-8.533h119.465c4.713 0 8.533 3.821 8.533 8.533l-.001 30.441z" fill="#f4fbff"/><path d="m418.132 426.667h-23.694c4.713 0 8.533 3.821 8.533 8.533l-.001 30.441h23.694l.001-30.441c.001-4.712-3.82-8.533-8.533-8.533z" fill="#bfebff"/><path d="m443.732 503.467v-25.601c0-9.426-7.641-17.067-17.067-17.067h-136.532c-9.426 0-17.066 7.641-17.066 17.067v25.601c0 4.713 3.82 8.533 8.533 8.533h153.599c4.713 0 8.533-3.82 8.533-8.533z" fill="#587aa1"/><path d="m426.666 460.799h-23.694c9.426 0 17.067 7.641 17.067 17.067v25.601c0 4.713-3.82 8.533-8.534 8.533h23.694c4.713 0 8.534-3.821 8.534-8.533v-25.601c-.001-9.426-7.642-17.067-17.067-17.067z" fill="#455f80"/></g><g><circle cx="256" cy="119.466" fill="#ffcc4a" r="119.466"/><path d="m256 0c-3.998 0-7.95.2-11.847.584 60.417 5.948 107.619 56.901 107.619 118.882s-47.202 112.934-107.619 118.882c3.897.384 7.849.584 11.847.584 65.979 0 119.466-53.487 119.466-119.466.001-65.979-53.486-119.466-119.466-119.466z" fill="#ffb54c"/><g fill="#ffe278"><path d="m256 0c-2.596 0-5.171.092-7.726.255v33.878c0 4.267 3.459 7.726 7.726 7.726s7.726-3.459 7.726-7.726v-33.878c-2.554-.163-5.129-.255-7.726-.255z"/><path d="m166.242 40.635 23.955 23.955c1.509 1.509 3.486 2.263 5.463 2.263s3.955-.754 5.463-2.263c3.018-3.017 3.018-7.909 0-10.926l-23.955-23.955c-3.872 3.403-7.522 7.053-10.926 10.926z"/><path d="m170.667 111.74h-33.878c-.163 2.555-.255 5.13-.255 7.726 0 2.597.092 5.171.255 7.727h33.878c4.267 0 7.726-3.459 7.726-7.726s-3.459-7.727-7.726-7.727z"/><path d="m190.197 174.343-23.955 23.955c3.404 3.873 7.054 7.523 10.926 10.927l23.955-23.955c3.018-3.017 3.018-7.91 0-10.927-3.016-3.017-7.909-3.017-10.926 0z"/><path d="m256 197.073c-4.267 0-7.726 3.459-7.726 7.726v33.878c2.555.163 5.13.255 7.726.255s5.171-.092 7.727-.255v-33.878c0-4.267-3.459-7.726-7.727-7.726z"/><path d="m345.758 198.298-23.955-23.955c-3.017-3.017-7.909-3.017-10.926 0-3.018 3.017-3.018 7.91 0 10.927l23.955 23.955c3.873-3.404 7.522-7.054 10.926-10.927z"/><path d="m334.832 29.708-23.955 23.955c-3.018 3.017-3.018 7.909 0 10.926 1.508 1.509 3.486 2.263 5.463 2.263s3.955-.754 5.463-2.263l23.955-23.955c-3.404-3.872-7.054-7.522-10.926-10.926z"/><path d="m375.211 111.74h-33.878c-4.267 0-7.726 3.459-7.726 7.726s3.459 7.726 7.726 7.726h33.878c.163-2.555.255-5.13.255-7.727.001-2.595-.091-5.169-.255-7.725z"/></g><circle cx="256" cy="119.466" fill="#ffb54c" r="85.333"/><path d="m256 111.74c-7.033 0-12.754-5.721-12.754-12.754 0-7.032 5.721-12.754 12.754-12.754 7.032 0 12.754 5.721 12.754 12.754 0 4.267 3.459 7.726 7.726 7.726s7.726-3.459 7.726-7.726c0-12.874-8.673-23.753-20.48-27.122v-3.598c0-4.267-3.459-7.726-7.726-7.726s-7.726 3.459-7.726 7.726v3.598c-11.807 3.369-20.48 14.248-20.48 27.122 0 15.553 12.653 28.207 28.207 28.207 7.032 0 12.754 5.721 12.754 12.754 0 7.032-5.721 12.753-12.754 12.753s-12.754-5.721-12.754-12.753c0-4.267-3.459-7.726-7.726-7.726s-7.726 3.459-7.726 7.726c0 12.874 8.673 23.753 20.48 27.121v3.598c0 4.267 3.459 7.726 7.726 7.726s7.726-3.459 7.726-7.726v-3.598c11.807-3.369 20.48-14.248 20.48-27.121 0-15.553-12.654-28.207-28.207-28.207z" fill="#ffe278"/><path d="m256 34.133c-4.022 0-7.973.299-11.847.837 41.518 5.77 73.486 41.39 73.486 84.496s-31.968 78.726-73.486 84.496c3.874.538 7.825.837 11.847.837 47.128 0 85.333-38.205 85.333-85.333.001-47.128-38.204-85.333-85.333-85.333z" fill="#ff9959"/></g></g></svg>