<svg id="Capa_1" enable-background="new 0 0 512 512" height="512" viewBox="0 0 512 512" width="512" xmlns="http://www.w3.org/2000/svg"><g><path d="m409.6 179.2v-101.997c0-2.356 1.91-4.267 4.267-4.267h25.178c4.169 0 6.257-5.041 3.309-7.989l-63.578-63.576c-1.827-1.828-4.79-1.828-6.618 0l-63.578 63.577c-2.948 2.948-.86 7.989 3.309 7.989h25.178c2.356 0 4.267 1.91 4.267 4.267v101.996c0 4.713 3.82 8.533 8.533 8.533h51.2c4.713.001 8.533-3.82 8.533-8.533z" fill="#b0d16f"/><g><g><g><path d="m385.067 179.2v-101.997c0-2.356 1.91-4.267 4.267-4.267h24.533c-2.356 0-4.267 1.91-4.267 4.267v101.997c0 4.713-3.821 8.533-8.533 8.533h-24.534c4.713.001 8.534-3.82 8.534-8.533z" fill="#89c247"/></g><g><path d="m439.044 72.937h-24.533c4.169 0 6.257-5.041 3.309-7.989l-54.62-54.62 8.958-8.958c1.828-1.827 4.791-1.827 6.618 0l63.578 63.577c2.948 2.949.86 7.99-3.31 7.99z" fill="#89c247"/></g></g></g><g><path d="m396.803 396.802c21.208 0 38.4 17.192 38.4 38.4v18.251h-134.321v-56.651z" fill="#ffb2a3"/><path d="m486.404 473.6c0-21.208-17.192-38.4-38.399-38.4h-125.932c1.416-4.005 2.194-8.312 2.194-12.802 0-9.496-3.447-18.186-9.157-24.889l-63.611-76.334c-7.043-8.534-17.702-13.974-29.631-13.974h-136.536l.003 102.398h34.132c12.768 0 24.081 6.232 31.062 15.819l53.11 70.808c6.985 9.562 18.281 15.773 31.029 15.773h213.336c21.207.001 38.4-17.191 38.4-38.399z" fill="#ffd3bd"/><g><path d="m448.004 435.201h-23.693c21.207 0 38.399 17.192 38.399 38.4s-17.192 38.4-38.399 38.4h23.693c21.207 0 38.4-17.192 38.4-38.4s-17.193-38.4-38.4-38.4z" fill="#ffb2a3"/></g><path d="m337.918 435.201h-15.845c-4.361 13.197-16.958 22.751-31.597 22.751-9.919 0-19.232-4.393-25.555-12.055l-63.779-77.221c-2.717-3.29-7.587-3.755-10.877-1.037-3.29 2.719-3.753 7.589-1.037 10.878l63.777 77.219c9.268 11.228 22.926 17.669 37.472 17.669 23.222-.001 42.679-16.389 47.441-38.204z" fill="#ffb2a3"/><path d="m63.425 290.135h30.441c4.713 0 8.533 3.821 8.533 8.533v119.465c0 4.713-3.82 8.533-8.533 8.533l-30.441-.001z" fill="#f4fbff"/><path d="m25.6 443.734h25.601c9.426 0 17.067-7.641 17.067-17.067v-136.533c0-9.426-7.641-17.067-17.067-17.067h-25.601c-4.713 0-8.533 3.82-8.533 8.533v153.6c-.001 4.713 3.82 8.534 8.533 8.534z" fill="#587aa1"/><path d="m93.866 290.135h-23.694c4.713 0 8.533 3.821 8.533 8.533v119.465c0 4.709-3.815 8.527-8.523 8.533h23.683c4.713 0 8.533-3.82 8.533-8.533v-119.465c.001-4.713-3.819-8.533-8.532-8.533z" fill="#bfebff"/><path d="m51.201 273.067h-23.694c9.426 0 17.067 7.641 17.067 17.067v136.533c0 9.426-7.641 17.067-17.067 17.067h23.694c9.426 0 17.067-7.641 17.067-17.067v-136.533c0-9.426-7.641-17.067-17.067-17.067z" fill="#455f80"/></g><g><ellipse cx="375.467" cy="238.934" fill="#ffcc4a" rx="119.467" ry="119.467" transform="matrix(.707 -.707 .707 .707 -58.98 335.477)"/><path d="m375.467 119.467c-3.998 0-7.95.2-11.847.584 60.418 5.948 107.62 56.901 107.62 118.883 0 61.981-47.202 112.934-107.62 118.883 3.897.384 7.849.584 11.847.584 65.98 0 119.467-53.487 119.467-119.467s-53.487-119.467-119.467-119.467z" fill="#ffb54c"/><g fill="#ffe278"><path d="m375.467 119.467c-2.596 0-5.171.092-7.726.256v33.877c0 4.267 3.459 7.726 7.726 7.726s7.726-3.459 7.726-7.726v-33.878c-2.555-.163-5.13-.255-7.726-.255z"/><path d="m285.709 160.102 23.955 23.955c1.509 1.509 3.486 2.263 5.463 2.263s3.955-.755 5.463-2.263c3.018-3.017 3.018-7.909 0-10.926l-23.955-23.955c-3.872 3.403-7.523 7.053-10.926 10.926z"/><path d="m290.133 231.207h-33.878c-.163 2.555-.255 5.13-.255 7.726s.092 5.171.255 7.727h33.878c4.267 0 7.726-3.459 7.726-7.726.001-4.267-3.459-7.727-7.726-7.727z"/><path d="m309.664 293.81-23.955 23.955c3.404 3.873 7.054 7.523 10.927 10.926l23.955-23.955c3.018-3.017 3.018-7.91 0-10.927-3.018-3.016-7.91-3.016-10.927.001z"/><path d="m375.467 316.54c-4.267 0-7.726 3.459-7.726 7.726v33.878c2.555.163 5.13.255 7.726.255s5.171-.092 7.727-.255v-33.878c-.001-4.266-3.46-7.726-7.727-7.726z"/><path d="m465.225 317.765-23.955-23.955c-3.017-3.017-7.909-3.017-10.927 0s-3.018 7.91 0 10.927l23.955 23.955c3.873-3.404 7.523-7.054 10.927-10.927z"/><path d="m454.298 149.175-23.955 23.955c-3.018 3.017-3.018 7.909 0 10.926 1.509 1.509 3.486 2.263 5.463 2.263s3.955-.755 5.463-2.263l23.955-23.955c-3.403-3.872-7.053-7.522-10.926-10.926z"/><path d="m494.678 231.207h-33.878c-4.267 0-7.726 3.459-7.726 7.726s3.459 7.726 7.726 7.726h33.878c.163-2.555.255-5.13.255-7.727.001-2.595-.092-5.169-.255-7.725z"/></g><circle cx="375.467" cy="238.934" fill="#ffb54c" r="85.333"/><path d="m375.467 231.207c-7.033 0-12.754-5.721-12.754-12.754 0-7.032 5.721-12.754 12.754-12.754 7.032 0 12.754 5.721 12.754 12.754 0 4.267 3.459 7.726 7.726 7.726s7.726-3.459 7.726-7.726c0-12.874-8.673-23.753-20.48-27.122v-3.598c0-4.267-3.459-7.726-7.726-7.726s-7.726 3.459-7.726 7.726v3.598c-11.807 3.369-20.48 14.248-20.48 27.122 0 15.553 12.654 28.207 28.207 28.207 7.032 0 12.754 5.721 12.754 12.754 0 7.032-5.721 12.753-12.754 12.753s-12.754-5.721-12.754-12.753c0-4.267-3.459-7.726-7.726-7.726s-7.726 3.459-7.726 7.726c0 12.874 8.673 23.753 20.48 27.122v3.598c0 4.267 3.459 7.726 7.726 7.726s7.726-3.459 7.726-7.726v-3.598c11.807-3.369 20.48-14.248 20.48-27.122-.001-15.553-12.654-28.207-28.207-28.207z" fill="#ffe278"/><path d="m375.467 153.6c-4.022 0-7.973.299-11.847.837 41.518 5.77 73.486 41.39 73.486 84.496s-31.968 78.726-73.486 84.496c3.874.538 7.825.837 11.847.837 47.128 0 85.333-38.205 85.333-85.333s-38.205-85.333-85.333-85.333z" fill="#ff9959"/></g></g></svg>