<svg id="Capa_1" enable-background="new 0 0 512 512" height="512" viewBox="0 0 512 512" width="512" xmlns="http://www.w3.org/2000/svg"><g><path d="m495.517 0h-85.917l-153.6 17.067-153.6-17.067h-85.917c-9.103 0-16.483 7.38-16.483 16.483v205.384l256 5.151 256-5.151v-205.384c0-9.103-7.38-16.483-16.483-16.483z" fill="#f4fbff"/><path d="m495.517 0h-23.694c9.103 0 16.483 7.38 16.483 16.483v205.86l23.694-.476v-205.384c0-9.103-7.38-16.483-16.483-16.483z" fill="#bfebff"/><path d="m102.4 0h307.2v231.207h-307.2z" fill="#587aa1"/><path d="m385.906 0h23.694v231.207h-23.694z" fill="#455f80"/><path d="m8.533 358.4c-4.713 0-8.533-3.821-8.533-8.533v-128h512v128c0 4.713-3.82 8.533-8.533 8.533z" fill="#abd5ed"/><path d="m488.306 221.867v128c0 4.713-3.82 8.533-8.533 8.533h23.694c4.713 0 8.533-3.82 8.533-8.533v-128z" fill="#97bedb"/><g fill="#587aa1"><path d="m60.267 93.867h-18.134c-4.418 0-8-3.582-8-8v-26.667c0-4.418 3.582-8 8-8h18.133c4.418 0 8 3.582 8 8v26.667c.001 4.418-3.581 8-7.999 8z"/><path d="m60.267 170.667h-18.134c-4.418 0-8-3.582-8-8v-26.667c0-4.418 3.582-8 8-8h18.133c4.418 0 8 3.582 8 8v26.667c.001 4.418-3.581 8-7.999 8z"/><path d="m451.733 128h18.133c4.418 0 8 3.582 8 8v26.667c0 4.418-3.582 8-8 8h-18.133c-4.418 0-8-3.582-8-8v-26.667c0-4.418 3.582-8 8-8z"/><path d="m451.733 51.2h18.133c4.418 0 8 3.582 8 8v26.667c0 4.418-3.582 8-8 8h-18.133c-4.418 0-8-3.582-8-8v-26.667c0-4.418 3.582-8 8-8z"/></g><path d="m359.467 187.733h-206.934c-8.837 0-16-7.163-16-16v-121.6c0-8.837 7.163-16 16-16h206.933c8.837 0 16 7.163 16 16v121.6c.001 8.837-7.163 16-15.999 16z" fill="#45c5ff"/><path d="m119.467 324.267h-51.2c-9.426 0-17.067-7.641-17.067-17.067v-34.133c0-9.426 7.641-17.067 17.067-17.067h375.467c9.426 0 17.067 7.641 17.067 17.067v34.133c0 9.426-7.641 17.067-17.067 17.067h-51.2z" fill="#587aa1"/><g><path d="m119.467 290.134v205.383c0 9.103 7.379 16.483 16.483 16.483h240.1c9.103 0 16.483-7.38 16.483-16.483v-205.383z" fill="#89c247"/><path d="m368.839 290.134v205.383c0 9.103-7.38 16.483-16.483 16.483h23.694c9.103 0 16.483-7.38 16.483-16.483v-205.383z" fill="#67b83e"/><path d="m153.6 290.134v127.567c0 4.193 3.039 7.816 7.188 8.423 22.671 3.32 41.246 22.018 44.554 44.546.61 4.152 4.228 7.196 8.424 7.196h84.467c4.196 0 7.815-3.044 8.424-7.196 3.308-22.528 21.882-41.226 44.554-44.546 4.149-.608 7.189-4.23 7.189-8.423v-127.567z" fill="#b0d16f"/><g><g><path d="m169.859 477.866v-8.533c0-4.268-3.459-7.726-7.726-7.726-4.268 0-7.726 3.459-7.726 7.726v8.533c0 4.268 3.459 7.726 7.726 7.726 4.268 0 7.726-3.458 7.726-7.726z" fill="#67b83e"/></g></g><g><g><path d="m357.593 477.866v-8.533c0-4.268-3.459-7.726-7.726-7.726-4.268 0-7.726 3.459-7.726 7.726v8.533c0 4.268 3.459 7.726 7.726 7.726s7.726-3.458 7.726-7.726z" fill="#67b83e"/></g></g><path d="m196.889 290.134c11.805 20.399 33.847 34.133 59.111 34.133s47.306-13.734 59.111-34.133z" fill="#89c247"/><ellipse cx="256" cy="392.533" fill="#89c247" rx="17.067" ry="17.067" transform="matrix(.974 -.228 .228 .974 -82.783 68.737)"/><g fill="#67b83e"><path d="m291.423 290.134c-9.918 17.128-27.063 29.549-47.27 33.087 3.85.674 7.804 1.046 11.847 1.046 25.264 0 47.306-13.734 59.111-34.133z"/><path d="m256 409.6c-4.605 0-8.777-1.833-11.847-4.798 3.213-3.104 5.22-7.449 5.22-12.269s-2.006-9.165-5.22-12.269c3.07-2.965 7.242-4.798 11.847-4.798 9.426 0 17.067 7.641 17.067 17.067s-7.641 17.067-17.067 17.067z"/></g></g><g><g><path d="m426.667 297.86h-341.334c-4.267 0-7.726-3.459-7.726-7.726 0-4.268 3.459-7.726 7.726-7.726h341.333c4.268 0 7.726 3.459 7.726 7.726.001 4.267-3.457 7.726-7.725 7.726z" fill="#455f80"/></g></g><path d="m443.733 256h-23.694c9.426 0 17.067 7.641 17.067 17.067v34.133c0 9.426-7.641 17.067-17.067 17.067h23.694c9.426 0 17.067-7.641 17.067-17.067v-34.133c0-9.426-7.641-17.067-17.067-17.067z" fill="#455f80"/><path d="m358.984 34.133h-23.694c9.103 0 16.483 7.38 16.483 16.483v120.634c0 9.103-7.38 16.483-16.483 16.483h23.694c9.103 0 16.483-7.38 16.483-16.483v-120.634c0-9.103-7.38-16.483-16.483-16.483z" fill="#0ca8ed"/><path d="m469.625 51.2h-17.65c-1.066 0-2.082.209-3.017.578 3.057 1.205 5.224 4.178 5.224 7.664v26.184c0 3.485-2.167 6.459-5.224 7.664.935.368 1.951.578 3.017.578h17.65c4.551 0 8.241-3.69 8.241-8.241v-26.186c.001-4.551-3.689-8.241-8.241-8.241z" fill="#455f80"/><path d="m469.625 128h-17.65c-1.066 0-2.082.209-3.017.578 3.057 1.205 5.224 4.178 5.224 7.664v26.184c0 3.486-2.167 6.459-5.224 7.664.935.368 1.951.577 3.017.577h17.65c4.551 0 8.241-3.69 8.241-8.242v-26.184c.001-4.551-3.689-8.241-8.241-8.241z" fill="#455f80"/><path d="m60.025 51.2h-17.65c-1.066 0-2.082.209-3.017.578 3.057 1.205 5.224 4.178 5.224 7.664v26.184c0 3.485-2.167 6.459-5.224 7.664.935.368 1.951.578 3.017.578h17.65c4.552 0 8.241-3.69 8.241-8.241v-26.186c.001-4.551-3.689-8.241-8.241-8.241z" fill="#455f80"/><path d="m60.025 128h-17.65c-1.066 0-2.082.209-3.017.578 3.057 1.205 5.224 4.178 5.224 7.664v26.184c0 3.486-2.167 6.459-5.224 7.664.935.368 1.951.577 3.017.577h17.65c4.552 0 8.241-3.69 8.241-8.242v-26.184c.001-4.551-3.689-8.241-8.241-8.241z" fill="#455f80"/></g></svg>